<?xml version="1.0" standalone="no"?>
<!DOCTYPE svg PUBLIC "-//W3C//DTD SVG 20010904//EN"
 "http://www.w3.org/TR/2001/REC-SVG-20010904/DTD/svg10.dtd">
<svg version="1.0" xmlns="http://www.w3.org/2000/svg"
 width="2000.000000pt" height="2000.000000pt" viewBox="0 0 2000.000000 2000.000000"
 preserveAspectRatio="xMidYMid meet">
<metadata>
Created by potrace 1.14, written by Peter Selinger 2001-2017
</metadata>
<g transform="translate(0.000000,2000.000000) scale(0.100000,-0.100000)"
fill="#000000" stroke="none">
<path d="M9369 19105 c13 -161 5 -592 -14 -720 -2 -16 -9 -64 -15 -105 -12
-88 -13 -97 -46 -260 -14 -69 -32 -147 -39 -175 -8 -27 -23 -86 -35 -130 -54
-199 -186 -558 -282 -763 -60 -129 -171 -350 -213 -422 -21 -36 -49 -85 -63
-110 -63 -112 -276 -435 -310 -469 -7 -8 -21 -26 -30 -40 -9 -14 -23 -33 -29
-41 -7 -8 -57 -76 -112 -150 -55 -74 -104 -139 -108 -145 -5 -5 -28 -38 -53
-73 -25 -34 -74 -102 -110 -150 -36 -48 -107 -145 -159 -217 -51 -71 -101
-141 -111 -155 -11 -14 -62 -86 -114 -160 -53 -74 -99 -139 -103 -145 -61 -75
-573 -838 -613 -911 -11 -21 -46 -79 -75 -128 -30 -49 -55 -90 -55 -92 0 -2
-15 -27 -32 -56 -18 -29 -40 -66 -49 -83 -18 -34 -21 -34 -175 -39 -55 -1
-105 -5 -110 -8 -5 -4 -31 -5 -57 -4 l-48 2 -77 -83 c-42 -46 -97 -105 -122
-132 -56 -59 -168 -185 -206 -231 -16 -19 -32 -36 -36 -38 -5 -2 -8 -8 -8 -12
0 -5 -10 -20 -22 -33 -38 -39 -121 -143 -236 -297 -40 -52 -76 -100 -81 -106
-19 -23 -199 -291 -261 -389 -260 -409 -513 -921 -679 -1375 -24 -63 -46 -124
-51 -135 -10 -23 -74 -223 -120 -371 -28 -92 -106 -389 -116 -439 -10 -53 -17
-86 -35 -161 -10 -44 -35 -174 -54 -290 -44 -259 -42 -247 -50 -319 -4 -33 -9
-73 -11 -90 -11 -84 -24 -208 -29 -275 -4 -41 -8 -93 -10 -115 -25 -286 -26
-853 0 -1060 2 -16 6 -60 10 -97 3 -37 8 -77 10 -90 2 -13 6 -45 10 -71 4 -27
8 -59 11 -70 5 -25 4 -38 -2 -166 l-5 -94 25 7 c26 6 29 2 41 -59 3 -16 7 -37
9 -45 2 -8 -1 -18 -7 -21 -12 -9 -10 -143 3 -147 5 -2 10 -17 10 -33 0 -16 5
-29 13 -29 20 0 57 -46 57 -71 0 -13 -3 -43 -6 -67 -4 -28 -2 -42 5 -42 7 0
11 -25 12 -67 0 -38 3 -62 6 -55 8 19 30 14 58 -13 29 -30 31 -43 10 -51 -26
-11 -9 -74 20 -74 21 0 65 -80 72 -134 3 -20 -1 -32 -11 -38 -17 -10 -22 -48
-7 -48 5 0 12 -8 14 -17 3 -12 7 -8 12 15 4 17 11 32 15 32 6 0 60 -113 60
-126 0 -2 -7 -4 -15 -4 -10 0 -15 -10 -15 -29 0 -29 14 -41 50 -41 12 0 23
-12 31 -35 7 -19 16 -35 20 -35 4 0 5 -28 3 -62 -3 -55 -2 -60 8 -35 7 15 15
27 18 27 4 0 17 -21 31 -47 20 -40 23 -60 21 -123 -2 -66 -1 -73 11 -57 8 9
20 17 26 17 31 0 106 -106 95 -134 -5 -12 7 -30 37 -60 53 -52 72 -76 62 -76
-4 0 -3 -4 3 -8 14 -10 74 -101 74 -113 0 -5 4 -9 8 -9 5 0 13 -10 19 -23 8
-16 7 -25 -3 -35 -8 -7 -14 -20 -14 -29 0 -12 7 -14 35 -9 19 4 35 3 35 -2 0
-4 8 -17 18 -28 10 -10 28 -35 42 -54 13 -19 27 -37 30 -40 11 -10 70 -89 70
-94 0 -3 16 -22 35 -43 19 -21 35 -42 35 -46 0 -4 17 -25 38 -46 36 -37 115
-127 163 -185 13 -15 41 -47 61 -70 20 -23 40 -54 44 -70 7 -28 9 -30 57 -40
15 -4 27 -13 27 -21 0 -8 4 -15 10 -15 5 0 31 -21 58 -47 82 -81 250 -235 273
-251 12 -8 34 -27 48 -41 14 -15 60 -53 101 -85 41 -33 80 -64 85 -70 6 -6 39
-31 75 -55 36 -25 67 -48 70 -51 13 -16 190 -131 230 -148 83 -38 474 -169
554 -187 6 -1 18 -5 26 -8 18 -8 281 -74 370 -93 200 -44 466 -90 630 -109 25
-3 65 -7 90 -10 287 -34 977 -40 1150 -10 14 2 57 7 95 10 39 3 106 11 150 17
44 6 85 10 90 9 6 -1 43 -5 83 -7 62 -5 72 -3 72 10 0 19 38 36 90 42 19 2 61
10 92 18 31 8 87 12 125 10 37 -2 60 -1 51 2 -42 13 -2 35 95 50 20 4 37 10
37 14 0 3 6 7 13 8 30 2 117 24 157 39 22 9 21 9 63 17 20 5 37 12 37 18 0 5
5 6 10 3 6 -4 16 -2 23 3 7 6 14 10 17 10 10 -2 85 25 96 33 6 5 13 7 16 4 3
-3 20 1 39 8 19 8 43 18 54 22 11 4 25 9 30 10 31 7 180 69 183 76 2 4 10 5
18 2 8 -3 14 -1 14 4 0 5 10 9 22 10 11 1 24 7 28 13 4 7 11 12 16 11 21 -1
54 12 54 21 0 5 4 7 9 3 5 -3 16 2 25 10 8 9 18 15 21 14 11 -2 70 24 89 40
11 9 17 11 13 5 -7 -12 179 77 200 96 7 6 14 10 15 9 8 -5 48 14 48 22 0 5 4
8 8 6 10 -3 105 45 114 57 3 5 14 11 23 12 9 1 34 14 56 28 21 14 43 26 48 26
5 0 14 7 21 15 7 8 16 12 21 9 5 -3 9 -1 9 4 0 5 18 17 40 27 22 10 47 26 56
36 9 10 20 17 24 14 4 -2 18 6 31 18 13 12 26 22 29 21 5 -1 51 26 60 36 3 3
12 6 20 8 8 2 17 8 18 13 2 5 9 9 16 9 7 0 23 11 36 25 12 13 26 22 30 20 4
-2 16 3 27 13 10 9 26 22 35 27 98 64 148 100 148 107 0 5 5 6 10 3 6 -3 10
-2 10 4 0 5 8 12 18 15 9 3 28 16 42 28 14 13 48 39 77 58 28 19 49 39 45 44
-3 5 -1 6 5 3 5 -3 21 4 36 17 14 12 38 31 52 42 15 10 35 26 44 34 10 8 33
26 51 40 44 33 77 60 105 88 13 12 26 22 29 22 7 0 67 53 120 105 22 22 36 33
31 25 -5 -8 9 2 31 22 144 135 170 158 177 158 5 0 5 5 2 10 -3 6 -1 10 5 10
5 0 40 29 77 65 37 36 71 65 76 65 6 0 8 3 4 6 -3 3 14 24 39 45 25 21 43 39
40 39 -3 0 2 8 12 18 9 11 20 17 25 15 4 -2 7 0 7 5 0 5 31 41 69 80 38 39 66
73 63 76 -3 4 2 6 10 6 9 0 22 8 29 18 13 16 13 16 -6 2 -11 -8 7 13 40 47 33
33 77 81 97 105 20 23 46 53 57 64 11 12 17 24 15 27 -3 3 4 8 15 12 12 3 19
11 16 16 -4 5 -1 9 5 9 6 0 8 5 5 10 -4 6 -3 9 2 8 4 -2 9 -1 9 2 1 3 18 23
38 44 20 22 36 47 36 55 0 8 3 11 7 8 3 -4 12 1 19 11 7 9 16 14 20 9 4 -4 -3
-21 -16 -39 -12 -17 -16 -27 -9 -23 8 5 2 -4 -13 -19 -15 -16 -26 -32 -23 -36
3 -4 -2 -11 -11 -14 -8 -3 -12 -11 -8 -17 4 -7 3 -9 -4 -5 -6 3 -14 -4 -18
-16 -7 -24 -54 -91 -67 -96 -4 -2 -5 -8 -1 -13 3 -5 1 -9 -3 -9 -5 0 -17 -16
-27 -35 -11 -19 -24 -35 -29 -35 -6 0 -7 -3 -4 -7 4 -3 -2 -12 -13 -20 -11 -8
-20 -19 -20 -24 0 -5 -5 -15 -10 -22 -35 -41 -80 -107 -80 -117 0 -6 -4 -9 -9
-5 -5 3 -12 -3 -15 -12 -3 -10 -17 -31 -31 -48 -34 -41 -37 -45 -70 -90 -34
-45 -60 -77 -92 -113 -13 -14 -23 -31 -23 -38 0 -8 -3 -13 -8 -11 -4 1 -8 -1
-10 -5 -1 -4 -19 -25 -40 -47 -42 -44 -62 -68 -63 -75 0 -3 -21 -28 -47 -55
-82 -87 -97 -105 -95 -113 2 -5 -3 -8 -11 -8 -7 0 -20 -8 -27 -17 -13 -17 -13
-17 6 -3 10 8 -28 -32 -85 -90 -58 -58 -115 -118 -127 -134 -13 -16 -23 -26
-23 -22 0 4 -6 1 -14 -6 -8 -7 -12 -16 -10 -20 2 -4 -5 -9 -15 -13 -11 -3 -23
-15 -26 -26 -4 -11 -9 -18 -12 -15 -3 2 -36 -25 -74 -62 -38 -37 -90 -85 -115
-107 -26 -22 -65 -58 -88 -80 -22 -22 -36 -33 -31 -25 4 8 -5 3 -21 -13 -64
-60 -94 -86 -94 -81 0 3 -10 -5 -22 -17 -13 -12 -68 -55 -123 -96 -55 -42
-105 -82 -111 -89 -6 -8 -14 -14 -18 -14 -6 0 -188 -127 -217 -152 -9 -7 -22
-14 -30 -16 -7 -2 -16 -7 -19 -11 -3 -4 -23 -18 -45 -31 -22 -13 -42 -26 -45
-30 -3 -3 -34 -23 -70 -44 -36 -22 -67 -43 -68 -48 -2 -4 -7 -6 -12 -3 -5 3
-14 -1 -22 -8 -7 -7 -30 -21 -50 -30 -21 -10 -38 -22 -38 -28 0 -6 -4 -8 -9
-4 -5 3 -17 -2 -25 -11 -9 -8 -16 -13 -16 -10 0 3 -27 -10 -59 -29 -33 -19
-64 -35 -70 -35 -6 0 -11 -4 -11 -10 0 -5 -3 -10 -7 -9 -18 3 -52 -14 -47 -22
3 -5 -1 -6 -9 -3 -8 3 -20 -2 -27 -11 -7 -8 -17 -15 -23 -15 -6 0 -47 -17 -91
-39 -145 -69 -199 -93 -260 -116 -34 -13 -133 -51 -221 -84 -178 -68 -294
-105 -303 -97 -3 3 -12 0 -21 -8 -24 -22 -351 -111 -566 -155 -203 -41 -467
-82 -620 -97 -33 -3 -76 -7 -95 -9 -181 -21 -630 -32 -845 -21 -137 7 -299 18
-315 21 -8 2 -53 6 -100 10 -47 4 -88 9 -93 12 -4 2 -33 6 -65 8 -31 2 -64 6
-72 9 -8 2 -49 10 -90 17 -41 6 -84 13 -95 15 -11 2 -33 7 -48 9 -16 3 -67 15
-114 26 -47 11 -87 18 -89 16 -2 -2 15 -11 39 -21 23 -10 66 -29 95 -42 29
-13 55 -24 58 -24 3 0 24 -9 47 -19 134 -61 627 -222 781 -256 12 -2 62 -14
111 -25 120 -27 301 -63 385 -76 25 -3 52 -8 60 -9 8 -1 42 -6 75 -10 32 -4
66 -8 75 -10 8 -1 53 -6 100 -10 47 -4 99 -9 115 -12 17 -2 167 -6 335 -10
168 -3 307 -9 308 -14 5 -13 112 -11 112 2 0 5 12 9 28 7 15 -1 72 1 127 5 55
4 138 10 184 12 46 3 86 7 90 9 3 2 53 7 111 11 58 4 109 9 114 12 5 3 36 7
70 9 33 2 73 9 88 15 16 6 39 9 53 7 13 -3 26 -2 27 2 5 12 138 38 144 29 3
-5 12 -2 20 6 9 8 26 16 40 16 27 2 31 2 59 12 11 3 31 8 45 11 51 11 360 97
390 109 8 3 40 14 70 23 49 14 128 42 185 65 28 10 175 66 200 75 11 4 23 6
28 6 4 -1 7 3 7 8 0 6 5 10 11 10 5 0 31 9 57 21 63 28 119 53 164 73 20 9 41
16 47 16 6 0 11 5 11 11 0 5 3 8 8 6 4 -2 21 4 37 13 17 10 77 42 135 71 58
29 136 70 175 92 38 22 75 40 82 40 7 0 13 4 13 8 0 9 70 48 82 45 4 0 14 8
22 19 8 11 18 17 21 13 4 -4 13 -2 21 5 36 32 45 38 54 32 6 -3 10 -2 10 3 0
14 77 62 100 62 11 0 20 4 20 9 0 12 118 96 148 105 12 4 22 11 22 15 0 5 14
14 30 21 17 7 30 16 30 20 0 11 87 70 94 63 3 -3 6 -2 6 4 0 6 35 37 77 69 42
33 88 69 102 82 13 12 38 33 54 45 16 12 42 32 57 44 15 13 35 23 43 23 8 0
17 7 21 15 3 9 18 15 36 15 23 0 30 -4 30 -20 0 -11 5 -20 11 -20 8 0 9 17 4
56 -6 52 -5 58 20 84 25 26 31 28 86 23 l59 -6 -6 60 c-6 58 -6 60 27 87 30
26 38 28 86 22 l53 -6 -7 60 c-5 54 -4 62 18 83 13 12 37 29 52 37 26 13 30
13 38 -3 6 -9 17 -17 24 -17 16 0 20 20 16 91 -2 39 1 49 23 67 14 11 26 24
26 29 0 21 63 82 91 88 27 6 29 10 24 34 -4 20 1 35 20 57 14 16 25 32 25 37
0 4 12 7 28 8 15 0 21 3 15 6 -20 7 -15 35 11 67 15 17 28 26 36 21 9 -5 10
-2 6 12 -4 12 1 29 14 46 11 14 20 28 20 31 0 3 14 26 32 51 23 33 39 45 57
45 40 0 47 11 48 71 1 42 8 67 30 102 15 26 34 47 40 47 7 0 13 11 13 25 0 35
27 85 45 85 8 0 15 9 15 20 0 11 5 20 10 20 6 0 10 14 10 30 0 23 4 30 20 30
21 0 28 16 9 22 -8 3 -6 15 6 38 10 19 21 37 24 40 8 7 24 41 59 130 64 160
124 307 141 345 15 33 80 227 87 260 2 6 23 78 47 160 64 215 130 492 152 640
3 22 8 47 10 55 6 21 35 215 41 275 2 28 7 64 9 80 3 17 8 62 11 100 2 39 7
77 10 85 3 8 7 64 9 124 3 59 6 115 9 125 3 9 8 45 11 81 4 36 9 72 10 82 2 9
6 38 10 65 11 86 16 103 31 103 8 0 14 7 14 15 0 8 -5 15 -11 15 -8 0 -10 14
-6 43 6 39 9 55 21 117 6 31 23 116 31 150 3 14 8 41 11 60 3 19 11 58 19 85
7 28 16 64 18 80 3 17 10 44 17 60 6 17 11 31 11 32 0 2 1 8 3 15 2 7 11 42
21 78 9 36 23 82 31 102 7 21 11 38 8 38 -4 0 1 11 10 25 9 14 14 25 11 25 -2
0 7 32 21 71 14 38 26 79 27 90 1 10 5 19 10 19 4 0 6 4 2 9 -3 5 0 13 6 16 5
4 8 13 5 20 -3 8 -1 15 3 17 7 3 101 227 101 242 0 8 34 85 61 139 12 23 14
36 7 31 -7 -4 -1 6 14 22 14 16 28 40 30 54 1 14 6 27 9 30 8 7 49 94 49 104
0 4 9 21 21 37 11 16 21 38 22 49 1 11 5 20 10 20 4 0 5 5 2 10 -3 6 -1 10 5
10 9 0 47 74 50 98 1 4 12 21 24 37 21 27 36 57 35 70 0 3 7 13 16 21 8 9 15
22 15 30 0 8 4 14 9 14 5 0 11 14 15 31 3 17 10 28 15 25 5 -3 16 10 25 29 10
19 39 72 67 116 27 44 49 85 49 90 0 5 5 9 10 9 6 0 10 7 10 15 0 8 5 15 10
15 6 0 10 7 10 15 0 9 7 18 15 21 8 4 15 11 15 18 0 6 9 19 20 29 11 9 20 24
20 32 0 8 5 15 11 15 5 0 7 5 4 10 -3 6 1 13 9 16 9 3 16 11 16 16 0 6 11 24
25 42 14 17 29 36 34 42 4 5 13 20 20 31 6 12 17 27 24 35 14 15 43 60 46 70
1 4 11 18 24 31 31 33 58 67 52 67 -4 0 34 44 77 91 9 9 14 20 11 22 -3 3 4
12 16 19 12 7 21 16 21 21 0 4 12 19 28 33 15 14 20 22 12 19 -8 -4 2 7 23 25
20 17 34 36 31 42 -4 6 -3 8 3 5 5 -3 16 3 24 15 8 11 42 50 77 86 34 36 62
69 62 73 0 4 9 11 20 14 11 3 20 11 20 17 0 6 17 26 37 44 l37 34 -130 2
c-154 1 -218 -2 -349 -17 -155 -18 -194 -23 -235 -29 -19 -3 -55 -8 -80 -12
-276 -36 -704 -131 -969 -214 -212 -66 -236 -74 -243 -85 -4 -5 -8 -6 -8 -2 0
4 -9 3 -21 -3 -30 -16 -60 -6 -102 35 -29 28 -37 44 -37 70 0 19 -4 35 -10 35
-5 0 -10 20 -10 45 0 25 -3 45 -6 45 -11 0 -34 -29 -34 -44 0 -9 -6 -16 -14
-16 -9 0 -15 18 -19 51 -4 36 -13 58 -30 73 -26 24 -83 179 -72 196 3 5 2 10
-4 10 -12 0 -31 63 -31 103 0 16 -5 27 -14 27 -17 0 -28 37 -20 67 4 15 1 22
-11 25 -15 3 -104 201 -108 241 -1 9 -4 17 -8 17 -10 0 -41 89 -34 100 3 5 -1
10 -9 10 -8 0 -18 10 -21 23 -8 26 -196 410 -205 417 -6 5 -41 71 -78 145 -9
17 -18 32 -22 35 -13 11 -80 132 -80 146 0 8 -4 14 -9 14 -5 0 -24 26 -42 58
-18 31 -48 77 -66 101 -18 24 -33 50 -33 57 0 7 -6 17 -13 21 -7 4 -37 43 -67
86 -30 43 -61 85 -67 92 -7 8 -13 16 -13 20 0 3 -13 20 -30 38 -16 18 -30 35
-30 39 0 4 -10 17 -23 30 -12 13 -33 39 -47 58 -13 19 -39 51 -56 70 -85 93
-104 117 -115 143 -6 15 -16 27 -21 27 -14 0 -228 223 -228 237 0 7 -7 13 -15
13 -21 0 -135 111 -135 131 0 11 -6 16 -17 13 -10 -2 -32 8 -49 23 -17 16 -46
39 -64 53 -19 14 -45 34 -59 45 -63 50 -66 51 -56 35 7 -12 6 -13 -6 -5 -8 6
-40 11 -71 10 -47 -1 -58 2 -61 17 -3 10 -12 18 -21 18 -9 0 -16 8 -16 20 0
11 -6 20 -13 20 -21 0 -70 46 -63 59 4 6 -8 26 -27 44 -39 37 -53 64 -56 107
0 12 -11 24 -25 30 -13 5 -30 22 -37 39 -7 16 -17 27 -21 25 -4 -3 -8 1 -8 8
0 7 -14 31 -30 52 -17 22 -30 43 -30 47 0 4 -14 22 -30 39 -17 18 -36 52 -42
76 -7 24 -15 41 -20 38 -9 -6 -48 17 -48 28 0 8 -17 30 -62 81 -16 18 -28 34
-28 38 0 3 -15 22 -32 41 -60 64 -123 140 -132 159 -5 10 -17 21 -27 24 -11 4
-19 10 -19 14 0 5 -36 45 -80 90 -44 45 -80 86 -80 91 0 6 -5 10 -11 10 -7 0
-41 29 -77 65 -35 36 -69 65 -74 65 -6 0 -8 9 -5 20 4 16 0 20 -18 20 -14 0
-35 14 -54 35 -17 19 -33 35 -36 35 -9 0 -168 131 -181 149 -8 10 -34 16 -83
19 -64 4 -71 6 -72 26 0 11 -3 15 -6 9 -6 -15 -93 -18 -93 -3 0 6 -7 10 -15
10 -8 0 -15 -4 -15 -10 0 -5 -11 -10 -25 -10 -21 0 -25 5 -25 30 0 21 -5 30
-16 30 -24 0 -43 30 -44 68 0 20 -5 32 -14 32 -14 0 -26 29 -26 66 0 12 -7 24
-15 28 -8 3 -15 17 -15 31 0 14 -4 25 -10 25 -5 0 -10 11 -10 25 0 14 -4 25
-9 25 -5 0 -28 44 -51 98 -22 53 -54 124 -70 157 -15 33 -45 98 -65 145 -62
140 -326 681 -384 783 -11 21 -21 44 -21 52 0 8 -4 15 -10 15 -5 0 -10 6 -10
14 0 8 -3 16 -8 18 -4 2 -26 39 -48 83 -23 44 -58 109 -78 143 -20 35 -33 68
-30 73 3 5 0 9 -5 9 -11 0 -37 38 -83 120 -36 64 -165 273 -177 287 -6 6 -20
29 -32 50 -11 21 -28 46 -37 56 -8 9 -20 26 -26 37 -25 44 -199 286 -241 334
-5 6 -23 29 -40 51 -16 22 -68 83 -114 135 -47 52 -86 97 -88 99 -1 2 -65 5
-141 5 l-139 2 6 -71z"/>
<path d="M4164 11627 c-347 -523 -663 -1298 -824 -2022 -30 -133 -82 -403 -94
-490 -20 -139 -45 -353 -51 -425 -4 -47 -9 -98 -11 -115 -23 -178 -23 -982 0
-1125 3 -14 7 -64 10 -112 4 -47 8 -104 11 -125 42 -334 35 -283 65 -463 39
-237 61 -338 107 -489 138 -459 379 -1017 625 -1451 88 -155 142 -247 154
-261 8 -8 14 -19 14 -23 0 -9 243 -377 262 -398 7 -7 33 -42 57 -78 25 -36 48
-67 51 -70 3 -3 26 -32 50 -65 54 -72 161 -206 176 -220 6 -5 30 -35 54 -65
25 -30 51 -62 60 -70 8 -8 51 -55 95 -104 166 -185 481 -488 651 -626 136
-110 184 -147 269 -212 172 -129 447 -310 621 -409 174 -98 216 -121 339 -182
142 -70 372 -174 470 -212 39 -14 79 -30 90 -35 164 -68 705 -236 855 -265 8
-2 34 -8 57 -14 53 -14 423 -87 483 -95 25 -3 56 -8 70 -10 37 -7 168 -25 225
-32 28 -3 61 -7 75 -9 14 -2 61 -7 105 -11 44 -3 94 -8 110 -9 256 -24 1010
-24 1136 0 10 2 54 7 96 10 77 6 89 8 188 19 60 8 192 27 220 32 10 2 37 6 60
9 22 3 47 8 55 10 8 2 29 7 45 10 17 2 41 7 55 10 14 3 39 8 55 10 28 5 42 7
98 20 12 3 38 8 57 11 19 3 40 10 46 15 6 5 14 6 17 2 4 -3 13 0 22 7 8 7 15
10 15 7 0 -3 17 -1 38 4 20 6 51 12 67 15 17 3 32 9 35 12 3 4 14 8 25 8 11 1
50 11 87 22 37 10 70 17 73 14 3 -3 5 1 5 8 0 7 3 11 6 8 5 -5 84 17 144 39 8
3 21 7 28 9 8 1 21 6 30 10 9 4 19 8 22 9 20 5 151 50 175 60 17 7 68 27 115
45 47 18 101 40 120 48 19 9 37 16 40 17 37 11 205 88 211 97 3 5 9 9 13 8 11
-3 96 35 96 43 0 4 6 7 13 7 20 0 147 67 139 74 -3 4 1 4 11 0 10 -3 17 -1 17
5 0 6 3 10 8 9 7 -2 62 27 217 115 39 22 94 53 123 69 28 16 52 34 52 39 0 6
5 7 10 4 6 -3 10 -2 10 3 0 6 11 13 25 16 14 4 25 11 25 16 0 6 5 10 10 10 6
0 32 15 58 33 26 18 55 36 65 40 9 3 17 11 17 17 0 6 4 9 9 5 6 -3 14 3 20 12
5 10 11 16 13 14 5 -6 78 40 78 50 0 5 5 9 11 9 18 0 59 37 51 45 -4 5 -2 6 3
2 10 -5 160 101 280 198 27 22 58 47 69 55 10 8 26 22 35 30 9 8 39 33 65 54
27 22 58 49 70 60 12 12 38 34 59 49 20 16 35 33 31 38 -3 5 -2 8 3 7 5 -2 28
15 52 37 23 22 49 44 57 48 8 4 14 15 14 22 0 8 4 14 9 12 11 -3 66 55 63 66
-1 5 2 6 7 3 5 -3 14 1 21 9 7 8 9 15 4 16 -5 0 1 4 14 10 15 5 21 13 16 21
-4 7 -4 10 1 6 11 -11 36 12 28 26 -3 6 -3 8 2 4 11 -10 37 11 29 23 -3 5 -2
8 3 7 10 -3 163 154 270 277 258 297 569 734 730 1025 16 30 40 73 53 95 302
531 551 1254 625 1815 3 25 8 59 10 75 2 17 -2 8 -11 -20 -80 -272 -185 -565
-264 -740 -14 -33 -35 -80 -46 -105 -41 -96 -195 -392 -274 -525 -45 -77 -91
-155 -102 -174 -45 -78 -309 -464 -328 -481 -4 -3 -26 -32 -51 -65 -69 -93
-275 -340 -368 -440 -171 -184 -446 -448 -601 -576 -99 -82 -111 -92 -149
-124 -20 -17 -61 -50 -91 -73 -30 -23 -60 -46 -67 -52 -7 -5 -23 -10 -37 -10
-18 0 -30 -9 -40 -27 -21 -42 -208 -178 -231 -169 -8 3 -15 1 -15 -4 0 -6 -9
-10 -19 -10 -11 0 -23 -5 -26 -10 -3 -6 -15 -10 -26 -10 -14 0 -21 -9 -26 -30
-8 -45 -73 -81 -130 -73 -27 3 -43 2 -43 -5 0 -5 -12 -13 -26 -16 -22 -6 -25
-10 -19 -36 6 -26 3 -31 -22 -42 -15 -7 -30 -15 -33 -19 -8 -10 -95 -63 -99
-60 -2 2 -7 -2 -10 -7 -5 -8 -90 -55 -271 -148 -30 -16 -56 -32 -58 -36 -2 -5
-9 -8 -15 -8 -7 0 -34 -12 -61 -26 -26 -14 -50 -23 -53 -20 -3 3 -20 -6 -38
-19 -17 -14 -35 -25 -39 -25 -7 0 -64 -26 -202 -91 -34 -16 -67 -29 -73 -29
-6 0 -11 -5 -11 -11 0 -5 -4 -8 -8 -5 -4 2 -21 -2 -37 -9 -53 -25 -229 -95
-239 -95 -5 0 -18 -8 -29 -18 -11 -9 -17 -11 -13 -4 6 11 4 11 -10 3 -26 -15
-133 -52 -166 -58 -16 -3 -28 -9 -28 -12 0 -4 -6 -8 -12 -9 -13 -1 -209 -66
-238 -78 -8 -4 -20 -8 -27 -9 -16 -4 -187 -53 -263 -75 -36 -11 -72 -20 -80
-20 -12 0 -34 -6 -100 -28 -8 -2 -24 -6 -35 -8 -11 -1 -49 -9 -85 -18 -36 -8
-76 -17 -90 -19 -14 -3 -45 -10 -69 -17 -23 -6 -45 -9 -48 -7 -2 3 -21 0 -41
-5 -68 -18 -127 -27 -202 -34 -41 -4 -82 -10 -90 -14 -8 -4 -42 -8 -75 -9 -33
-2 -63 -5 -67 -7 -4 -3 -35 -7 -70 -10 -35 -3 -97 -9 -138 -14 -41 -4 -241 -8
-445 -7 -335 0 -424 4 -670 31 -115 12 -155 26 -155 51 0 19 -9 19 -53 0 -32
-13 -93 -15 -113 -3 -5 4 -36 9 -69 13 -33 4 -70 12 -83 16 -13 5 -44 12 -70
15 -25 3 -54 10 -65 15 -10 6 -21 8 -24 6 -3 -3 -22 1 -43 8 -21 7 -51 16 -67
19 -39 8 -181 48 -288 82 -49 15 -94 29 -100 30 -11 3 -183 65 -227 83 -16 6
-28 7 -28 3 0 -4 -4 -1 -9 6 -4 7 -14 15 -22 16 -8 2 -25 8 -39 13 -14 6 -45
19 -70 28 -48 19 -101 41 -165 71 -22 10 -42 19 -45 19 -3 0 -29 13 -57 27
-29 15 -53 24 -53 20 0 -4 -4 -2 -8 3 -9 13 -132 78 -132 70 0 -4 -7 1 -16 9
-8 9 -21 16 -29 16 -7 0 -15 4 -17 8 -1 5 -48 32 -102 61 -55 29 -135 75 -179
102 -43 27 -80 49 -82 49 -3 0 -57 35 -121 77 -64 43 -127 85 -140 93 -37 23
-138 94 -150 105 -6 5 -22 17 -34 25 -12 8 -37 26 -55 40 -17 14 -44 34 -59
45 -56 41 -78 63 -72 73 3 5 -7 12 -22 15 -15 3 -43 19 -62 36 -19 16 -50 43
-67 58 -19 16 -33 38 -33 51 0 19 -4 22 -20 17 -42 -13 -130 79 -130 135 0 23
-4 25 -45 27 -36 1 -52 8 -84 38 -38 36 -40 40 -34 82 6 45 6 45 -17 33 -18
-10 -28 -9 -49 1 -36 18 -81 60 -81 76 0 7 -4 13 -10 13 -16 0 -12 47 6 64 18
19 5 21 -30 5 -20 -10 -28 -9 -41 5 -9 9 -22 16 -29 16 -20 0 -59 47 -53 63 3
8 -3 24 -14 35 -10 12 -19 30 -19 42 0 17 -6 20 -39 20 -33 0 -44 5 -64 33
-13 17 -28 46 -31 62 -9 35 -38 65 -63 65 -26 0 -83 70 -83 103 0 17 -11 38
-30 57 -16 16 -30 34 -30 40 0 5 -6 10 -13 10 -25 0 -60 38 -54 60 3 11 1 20
-4 20 -5 0 -9 9 -9 20 0 17 -5 19 -25 14 -19 -5 -25 -2 -25 10 0 9 -6 16 -12
16 -22 1 -50 50 -45 76 3 19 1 23 -12 19 -18 -6 -61 43 -61 69 0 23 -11 46
-22 46 -10 0 -43 32 -63 62 -106 160 -113 172 -108 201 4 22 2 27 -16 27 -14
0 -31 16 -53 53 -54 84 -90 157 -86 169 3 7 -8 24 -23 38 -16 14 -34 41 -40
60 -7 19 -16 37 -19 40 -7 5 -100 188 -98 193 0 1 -9 22 -22 47 -12 24 -26 57
-31 72 -6 24 -5 28 12 28 29 0 23 20 -11 33 -32 12 -61 66 -86 162 -17 63 -17
65 1 65 12 0 14 11 8 60 -4 42 -2 60 6 60 7 0 11 27 11 80 0 72 -2 80 -19 80
-14 0 -20 -10 -25 -40 -5 -34 -10 -40 -31 -40 -14 0 -25 5 -25 10 0 6 -6 10
-12 10 -20 0 -66 167 -62 220 2 25 1 39 -2 33 -3 -7 -10 -13 -14 -13 -13 0
-50 125 -50 165 0 18 -5 35 -11 37 -11 4 -82 238 -74 246 3 3 1 10 -4 16 -8 9
-41 123 -41 139 0 3 8 8 18 10 12 3 13 5 2 6 -8 0 -21 18 -28 39 -24 69 -85
331 -106 457 -3 17 -16 93 -30 170 -14 77 -27 163 -31 190 -3 28 -7 61 -10 75
-2 14 -6 52 -10 85 -3 33 -8 74 -10 90 -21 180 -28 806 -12 990 4 50 10 113
13 140 2 28 6 61 9 75 2 14 7 50 10 80 16 145 59 374 130 690 12 51 99 354
130 450 107 333 298 805 446 1104 16 32 28 60 27 62 -2 1 -22 -25 -44 -59z"/>
<path d="M9110 1860 c0 -5 9 -10 20 -10 11 0 20 5 20 10 0 6 -9 10 -20 10 -11
0 -20 -4 -20 -10z"/>
</g>
</svg>
